{
	"asset":{
		"generator":"Khronos glTF Blender I/O v4.0.44",
		"version":"2.0"
	},
	"scene":0,
	"scenes":[
		{
			"name":"Scene",
			"nodes":[
				0
			]
		}
	],
	"nodes":[
		{
			"mesh":0,
			"name":"iCOOL-6 MP (G3i)",
			"rotation":[
				0.7071068286895752,
				0,
				0,
				0.7071068286895752
			],
			"translation":[
				0,
				-46.51860427856445,
				-1288.5650634765625
			]
		}
	],
	"meshes":[
		{
			"name":"iCOOL-6 MP (G3i)",
			"primitives":[
				{
					"attributes":{
						"POSITION":0,
						"NORMAL":1
					},
					"indices":2
				}
			]
		}
	],
	"accessors":[
		{
			"bufferView":0,
			"componentType":5126,
			"count":4981096,
			"max":[
				593.5,
				1948.69580078125,
				0
			],
			"min":[
				0,
				626.3297729492188,
				-758.5
			],
			"type":"VEC3"
		},
		{
			"bufferView":1,
			"componentType":5126,
			"count":4981096,
			"type":"VEC3"
		},
		{
			"bufferView":2,
			"componentType":5125,
			"count":5381268,
			"type":"SCALAR"
		}
	],
	"bufferViews":[
		{
			"buffer":0,
			"byteLength":59773152,
			"byteOffset":0,
			"target":34962
		},
		{
			"buffer":0,
			"byteLength":59773152,
			"byteOffset":59773152,
			"target":34962
		},
		{
			"buffer":0,
			"byteLength":21525072,
			"byteOffset":119546304,
			"target":34963
		}
	],
	"buffers":[
		{
			"byteLength":141071376,
			"uri":"untitled.bin"
		}
	]
}
